<!DOCTYPE svg PUBLIC "-//W3C//DTD SVG 1.1//EN" "http://www.w3.org/Graphics/SVG/1.1/DTD/svg11.dtd">
<!-- Uploaded to: SVG Repo, www.svgrepo.com, Transformed by: SVG Repo Mixer Tools -->
<svg fill="#22D4FD" height="800px" width="800px" version="1.1" id="Layer_1" xmlns="http://www.w3.org/2000/svg" xmlns:xlink="http://www.w3.org/1999/xlink" viewBox="0 0 512 512" xml:space="preserve">
<g id="SVGRepo_bgCarrier" stroke-width="0"/>
<g id="SVGRepo_tracerCarrier" stroke-linecap="round" stroke-linejoin="round"/>
<g id="SVGRepo_iconCarrier"> <g> <g> <path d="M435.2,384h-12.8v32H384v-32H128v32H89.6v-32H76.8c-23.665,0-45.683-7.176-64-19.461V499.2h486.4V364.539 C480.883,376.824,458.865,384,435.2,384z"/> </g> </g> <g> <g> <path d="M0,121.6v147.2c0,42.415,34.385,76.8,76.8,76.8h12.8v-32H128v32h256v-32h38.4v32h12.8c42.415,0,76.8-34.385,76.8-76.8 V121.6H0z M320,268.8H192V192h128V268.8z"/> </g> </g> <g> <g> <path d="M256,12.8c-44.069,0-81.272,29.859-92.507,70.4h40.929c9.443-18.947,29.01-32,51.578-32s42.135,13.053,51.578,32h40.929 C337.272,42.659,300.069,12.8,256,12.8z"/> </g> </g> </g>
</svg>