<!DOCTYPE svg PUBLIC "-//W3C//DTD SVG 1.1//EN" "http://www.w3.org/Graphics/SVG/1.1/DTD/svg11.dtd">
<!-- Uploaded to: SVG Repo, www.svgrepo.com, Transformed by: SVG Repo Mixer Tools -->
<svg fill="#000000" width="800px" height="800px" viewBox="0 0 24 24" id="gmail" data-name="Flat Color" xmlns="http://www.w3.org/2000/svg" class="icon flat-color">
<g id="SVGRepo_bgCarrier" stroke-width="0"/>
<g id="SVGRepo_tracerCarrier" stroke-linecap="round" stroke-linejoin="round"/>
<g id="SVGRepo_iconCarrier">
<path id="primary" d="M22,7.43V19a1,1,0,0,1-1,1H17a1,1,0,0,1-1-1V10.86a1,1,0,0,1,.35-.76l4-3.43a1,1,0,0,1,1.07-.15A1,1,0,0,1,22,7.43ZM3.65,6.67a1,1,0,0,0-1.07-.15A1,1,0,0,0,2,7.43V19a1,1,0,0,0,1,1H7a1,1,0,0,0,1-1V10.86a1,1,0,0,0-.35-.76Z" style="fill: #000000;"/>
<path id="secondary" d="M20,4.32a3.38,3.38,0,0,0-3.66.51L12,8.56,7.65,4.83A3.42,3.42,0,0,0,2,7.43a1,1,0,0,0,.35.76l9,7.71a1,1,0,0,0,1.3,0l9-7.71A1,1,0,0,0,22,7.43,3.37,3.37,0,0,0,20,4.32Z" style="fill: #22D4FD;"/>
</g>
</svg>